<svg viewBox="0 0 10 18" xmlns="http://www.w3.org/2000/svg">
<path d="M7.69223 3.4615H9.61529C9.82759 3.4615 9.9999 3.2892 9.9999 3.07689V0.485765C9.9999 0.284228 9.8449 0.116537 9.64413 0.102307C9.03222 0.0588456 7.83684 0 6.97724 0C4.61534 0 3.07689 1.41537 3.07689 3.98765V6.5384H0.384611C0.172306 6.5384 0 6.7107 0 6.92301V9.61529C0 9.8276 0.172306 9.9999 0.384611 9.9999H3.07689V17.3075C3.07689 17.5198 3.2492 17.6921 3.4615 17.6921H6.15378C6.36609 17.6921 6.5384 17.5198 6.5384 17.3075V9.9999H9.31606C9.51221 9.9999 9.67682 9.8526 9.69836 9.6576L9.99759 6.96532C10.023 6.73763 9.84452 6.5384 9.61529 6.5384H6.5384V4.61534C6.5384 3.97804 7.05493 3.4615 7.69223 3.4615Z" />
</svg>
