<svg viewBox="0 0 20 18" xmlns="http://www.w3.org/2000/svg">
<path fill-rule="evenodd" clip-rule="evenodd" d="M4.71781 0.199219L6.03781 4.15922V6.79922H6.91781V4.15922L8.23781 0.199219H7.35781L6.47781 2.83922L5.59781 0.199219H4.71781ZM9.55781 1.95922C9.08859 1.95922 8.85828 2.03313 8.57125 2.26859C8.29625 2.50063 8.22063 2.67938 8.23781 3.27922V5.47922C8.23781 5.9175 8.31 6.20625 8.57469 6.46234C8.84969 6.71844 9.10922 6.79922 9.55781 6.79922C10.027 6.79922 10.2831 6.71844 10.5478 6.46234C10.8228 6.21656 10.8778 5.9175 10.8778 5.47922V3.27922C10.8778 2.89078 10.8091 2.52297 10.5427 2.27719C10.2677 2.02453 9.98406 1.95922 9.55781 1.95922ZM11.7578 1.95922V5.91922C11.7578 6.34719 12.1892 6.79922 12.6378 6.79922C13.0864 6.79922 13.3236 6.57406 13.5178 6.35922V6.79922H14.3978V1.95922H13.5178V5.47922C13.5127 5.78 13.1586 5.91922 13.0778 5.91922C12.9867 5.91922 12.6378 5.90031 12.6378 5.47922V1.95922H11.7578ZM9.55781 2.83922C9.69016 2.83922 9.99781 2.8375 9.99781 3.27922V5.47922C9.99781 5.90547 9.70047 5.91922 9.55781 5.91922C9.42547 5.91922 9.11781 5.91406 9.11781 5.47922V3.27922C9.11781 2.92 9.30859 2.83922 9.55781 2.83922ZM3.39781 7.67922C1.81656 7.67922 0.757812 8.72766 0.757812 10.3192V14.4992C0.757812 16.0908 1.81656 17.3592 3.39781 17.3592H16.5978C18.1791 17.3592 19.2378 16.3108 19.2378 14.7192V10.3192C19.2378 8.72766 18.1791 7.67922 16.5978 7.67922H3.39781ZM4.27781 9.43922H6.91781V10.3192H6.03781V15.5992H5.15781V10.3192H4.27781V9.43922ZM10.4378 9.43922H11.3178V11.1992C11.4192 11.0411 11.5705 10.9156 11.7148 10.8452C11.8558 10.773 11.9984 10.7317 12.1428 10.7317C12.4281 10.7317 12.6516 10.8348 12.8045 11.0273C12.9575 11.2216 13.0778 11.4794 13.0778 11.8592V14.4992C13.0778 14.8258 12.9678 15.0286 12.8234 15.2022C12.6825 15.3758 12.4711 15.5958 12.1978 15.5992C11.7355 15.6044 11.488 15.3569 11.3178 15.1592V15.5992H10.4378V9.43922ZM6.91781 10.7592H7.79781V14.2792C7.79781 14.3806 7.91641 14.7227 8.23781 14.7192C8.59531 14.7158 8.59875 14.3823 8.67781 14.2792V10.7592H9.55781V15.5992H8.67781V15.1592C8.51453 15.3517 8.43031 15.4119 8.24641 15.503C8.06422 15.6061 7.87859 15.5992 7.70672 15.5992C7.49359 15.5992 7.25125 15.4067 7.13781 15.2623C7.03641 15.13 6.91781 14.9942 6.91781 14.7192V10.7592ZM14.9255 10.7592C15.3431 10.7592 15.637 10.8486 15.8588 11.0823C16.0856 11.3161 16.1578 11.5894 16.1578 12.0294V13.3992H14.3978V14.0798C14.3978 14.3256 14.4305 14.482 14.4941 14.5748C14.5542 14.6763 14.6763 14.7209 14.8378 14.7192C15.0166 14.7175 15.13 14.6814 15.1902 14.6006C15.252 14.5284 15.2778 14.3239 15.2778 14.0592V13.8392H16.1578V14.1005C16.1578 14.58 16.12 14.9375 15.8828 15.1713C15.6594 15.417 15.3105 15.5305 14.8533 15.5305C14.4356 15.5305 14.1091 15.4067 13.8753 15.1523C13.6416 14.898 13.5195 14.5491 13.5195 14.1005V12.0294C13.5195 11.6306 13.6588 11.335 13.9148 11.072C14.1211 10.8606 14.5078 10.7592 14.9255 10.7592ZM11.7578 11.4192C11.5155 11.4192 11.3213 11.6375 11.3178 11.8592V14.4992C11.3213 14.6264 11.5155 14.7192 11.7578 14.7192C12.0002 14.7192 12.1978 14.5319 12.1978 14.2895V12.0792C12.1978 11.6392 12.0002 11.4192 11.7578 11.4192ZM14.8378 11.6392C14.5955 11.6392 14.4013 11.8438 14.3978 12.0792V12.5192H15.2778V12.0792C15.2778 11.8094 15.0802 11.6392 14.8378 11.6392Z"/>
</svg>
